<svg xmlns="http://www.w3.org/2000/svg" viewBox="0 0 612 408"><g fill="#050" stroke-width="0"><path d="M300 72.6c-10.1 1.6-15.9 2.9-25.7 6-7 2.2-11 4-10.6 4.7.3.6.1.7-.5.3-1.5-.9-12.9 4.7-22.3 11-4 2.6-11.6 9-16.9 14.1-16.1 15.4-26.9 32.6-32.7 51.8-2.5 8.4-2.7 10.4-2.7 28-.1 21.5.9 27.6 7.4 42.6 6.4 15 13.2 25 24.8 36.2 16.9 16.6 36.5 26.6 61 31.3 4.1.8 7.7 1.2 7.9 1s-.8-2.8-2.3-5.8c-2.6-5.5-2.7-5.5-10.2-7.7-21.1-6.2-41.3-19.6-54.7-36.4-35.7-44.6-27.5-108 18.9-145.6 3.9-3.2 9.2-7.2 11.8-8.9 11.3-7.7 34.3-17.3 48.3-20.2 7.9-1.6 10.3-3 5-2.8-2.2 0-5.1.2-6.5.4"/><path d="M412.5 108c-10.6 2-15.4 3.2-20.2 5-2.9 1.1-5.3 1.8-5.3 1.5 0-.7-18.5 7.3-25.6 11.1-23.9 13-39.3 34.1-43.9 60.1-1.5 9.1-1.9 25.4-.7 33.3l.7 4.5 1.4-7.5c1.6-9.3 6.7-23 11.2-30.5 5.5-9.2 20.6-22.7 37.6-33.5 8.1-5.2 19.7-13 25.7-17.3 9.7-7 10.6-7.4 7.9-4-4.3 5.3-15.6 15.7-22.4 20.5-1.3.9-8 5.6-14.8 10.4-23.3 16.4-32.5 28.3-39.7 51.4-10.5 33.6-12.7 39.4-14.5 38.8-.6-.2-3.3-5.7-6-12.3-2.8-6.6-7.5-18-10.5-25.3s-5.9-14.1-6.4-15c-2.2-4.1-10.3-26-10.7-29.2-.6-4.6.7-5.7 8.6-7.3 7.4-1.5 9.5-3.2 6.6-5.3-1.7-1.3-7.2-1.5-36.5-1.3-19 .1-35.1.4-35.7.7-2.5.8-1.4 4.1 1.5 4.7 13.9 2.8 16.6 5.2 23.3 20.4 2.3 5.3 5.8 13 7.7 17.1 1.8 4.1 4.3 9.7 5.3 12.3 1.1 2.7 3.2 7.6 4.8 11s4.7 10.5 6.9 15.7 4.8 10.8 5.6 12.5c.9 1.6 1.6 3.3 1.6 3.8 0 .4 2 4.9 4.4 10 2.4 5 6.4 13.9 9 19.7s5 10.8 5.4 11.2c3.4 3.4 22.5-30.2 25.7-45.2 1.1-5.4 7.1-22.3 9.3-26.4 5.3-9.8 16.9-17.8 34.1-23.6 5.1-1.7 11.1-4.2 13.2-5.6 2.1-1.3 4.3-2.4 4.8-2.4 1.6 0 15.9-14 18.9-18.3 7-10.5 13.1-26.3 15.8-40.7 3.3-18 3.5-26.5.5-25.9-.3.1-2.4.5-4.6.9"/><path d="M377.5 203c-1.1.5-3.3.9-5 1-4 .1-13.5 3.7-21.4 8-6.9 3.7-14.7 10.7-18 16.1-2.3 3.7-2.8 6.3-.8 3.9 1.6-2 8.1-6.2 15.5-9.9s22.7-7.8 32-8.6l6.7-.5-6 2.1c-15.2 5.3-25.6 9.5-33 13.5-7.7 4.2-16.3 11.3-18.4 15.3-1 1.8-.8 1.8 3.2.9 2.3-.5 9.8-.7 16.7-.4s15.9.1 20-.5c18.6-2.4 36.9-17 44-34.8l1.9-4.9-4.4-1.1c-5.1-1.3-30.1-1.4-33-.1m34.6 30.6c-.2 2.9-11.1 17.7-18.2 24.6-20.1 20-51.3 32.8-79.5 32.8h-7l-3.2 4.5c-1.8 2.5-3.2 4.8-3.2 5.2 0 .9 22.8-.6 31.7-2.1 26.6-4.7 50.7-19 65.8-39.2 6.5-8.6 14.9-23.8 14.2-25.7-.4-.7-.6-.8-.6-.1"/></g><path d="M418.5 108c.3.5.8 1 1.1 1 .2 0 .4-.5.4-1 0-.6-.5-1-1.1-1-.5 0-.7.4-.4 1m-35.6 39.7c-1.3 1.6-1.2 1.7.4.4s2.1-2.1 1.3-2.1c-.2 0-1 .8-1.7 1.7m-157.1 9c1.2.2 3.2.2 4.5 0 1.2-.2.2-.4-2.3-.4s-3.5.2-2.2.4m116.1 23c-1.3 1.6-1.2 1.7.4.4.9-.7 1.7-1.5 1.7-1.7 0-.8-.8-.3-2.1 1.3M200.2 181c0 1.4.2 1.9.5 1.2.2-.6.2-1.8 0-2.5-.3-.6-.5-.1-.5 1.3m190.5 20.7c1.8.2 5 .2 7 0 2.1-.2.7-.4-3.2-.4-3.8 0-5.5.2-3.8.4m-16.9 2c.7.3 1.6.2 1.9-.1.4-.3-.2-.6-1.3-.5-1.1 0-1.4.3-.6.6m-55.7 15.9c0 1.1.3 1.4.6.6.3-.7.2-1.6-.1-1.9-.3-.4-.6.2-.5 1.3M217 264.3c0 .2 1.5 1.6 3.3 3.3l3.2 2.9-2.9-3.3c-2.8-3-3.6-3.7-3.6-2.9"/></svg>